<svg width="1101" height="648" viewBox="0 0 1101 648" fill="none" xmlns="http://www.w3.org/2000/svg">
<path d="M595.257 336.962C605.659 336.962 614.089 331.94 618.214 319.565L640.096 325.125C635.074 345.572 616.6 358.665 595.257 358.665C569.07 358.665 547.368 339.473 547.368 311.314C547.368 283.155 569.07 263.784 595.257 263.784C616.062 263.784 634.177 276.698 640.096 296.786L617.318 303.243C614.089 290.688 605.659 285.486 595.257 285.486C580.37 285.486 570.326 296.069 570.326 311.314C570.326 326.739 580.37 336.962 595.257 336.962Z" fill="white"/>
<path d="M739.129 266.474V355.974H715.454V348.979C707.921 355.078 698.056 358.665 685.859 358.665C663.081 358.665 641.916 339.473 641.916 311.314C641.916 283.155 663.081 263.784 685.859 263.784C698.056 263.784 707.921 267.371 715.454 273.649V266.474H739.129ZM689.985 338.039C702.719 338.039 715.454 327.815 715.454 311.314C715.454 294.813 702.719 284.41 689.985 284.41C675.636 284.41 664.874 294.813 664.874 311.314C664.874 327.815 675.636 338.039 689.985 338.039Z" fill="white"/>
<path d="M747.667 332.299L771.522 327.456C772.777 336.604 780.669 339.653 789.996 339.653C798.784 339.653 803.986 335.707 803.986 330.685C803.986 327.456 801.833 324.228 794.121 322.614L775.826 318.847C759.684 315.439 750.537 306.292 750.537 293.378C750.537 276.16 764.527 263.784 787.126 263.784C808.29 263.784 822.998 274.725 826.047 290.329L803.447 294.813C802.551 287.639 796.273 282.437 786.408 282.437C776.902 282.437 774.212 287.101 774.212 291.226C774.212 294.096 775.288 297.145 782.283 298.759L803.627 303.422C819.41 306.83 827.123 316.695 827.123 328.712C827.123 348.441 811.16 358.665 787.843 358.665C768.114 358.665 749.998 350.952 747.667 332.299Z" fill="white"/>
<path d="M888.272 263.784C909.795 263.784 924.143 279.209 924.143 301.449V355.974H900.468V306.471C900.468 293.916 893.294 285.486 882.353 285.486C868.901 285.486 860.112 294.454 860.112 316.336V355.974H836.437V226.836H860.112V274.545C867.107 267.55 876.434 263.784 888.272 263.784Z" fill="white"/>
<path d="M634.652 131.095V220.165H611.091V212.132C604.129 219.094 594.847 222.842 583.067 222.842C561.647 222.842 547.368 207.491 547.368 185.358V131.095H570.929V180.36C570.929 192.855 578.069 201.244 588.957 201.244C602.344 201.244 611.091 192.319 611.091 170.543V131.095H634.652Z" fill="white"/>
<path d="M702.339 128.418C723.759 128.418 738.038 143.769 738.038 165.902V220.165H714.477V170.9C714.477 158.405 707.337 150.016 696.449 150.016C683.062 150.016 674.316 158.941 674.316 180.717V220.165H650.754V131.095H674.316V139.128C681.277 132.166 690.559 128.418 702.339 128.418Z" fill="white"/>
<path d="M793.231 128.953C819.291 128.953 841.246 147.695 841.246 175.719C841.246 203.743 819.291 222.485 793.231 222.485C766.635 222.485 744.68 203.743 744.68 175.719C744.68 147.695 766.635 128.953 793.231 128.953ZM793.231 202.315C805.547 202.315 818.399 192.319 818.399 175.719C818.399 159.119 805.547 149.123 793.231 149.123C780.379 149.123 767.528 159.119 767.528 175.719C767.528 192.319 780.379 202.315 793.231 202.315Z" fill="white"/>
<path d="M254.495 380.75V406.36H225.202V380.841L254.495 380.75ZM176.905 377.526V406.36H206.198V377.526H176.905ZM165.379 428.428V438.054H175.143V428.428H165.379ZM212.39 489.955V496.402H219.01V489.955H212.39ZM229.489 428.428V458.942H260.449V428.428H229.489ZM184.097 454.492V474.562H204.436V454.492H184.097ZM233.442 510.479V528.006H251.256V510.479H233.442ZM256.352 478.784V509.707H287.741V478.784H256.352ZM272.499 529.141V542.218H285.645V529.141H272.499ZM300.315 515.019V544.08H329.846V515.019H300.315ZM332.418 542.309V561.471H351.851V542.309H332.418ZM532.227 127.605L531.179 409.675C530.941 460.803 502.458 506.165 457.685 531.548C433.632 545.306 407.912 550.392 380.572 551.3C377.19 551.527 373.809 551.527 370.474 551.527C367.331 551.527 364.187 551.436 361.187 551.3V514.157H330.37V490.999H301.649V478.784H287.788V428.428H267.45V380.66H276.071L306.412 380.569C308.174 392.783 306.65 404.09 307.698 416.486C310.699 452.63 344.802 476.151 381.906 472.246C415.628 468.704 439.729 444.865 439.586 411.809L439.252 226.411L376.095 226.094L375.761 128.06L532.322 127.605L532.227 127.605ZM321.368 460.031H303.125V477.422H321.368V460.031Z" fill="white"/>
<path d="M401.747 408.058L344.006 408.384L361.128 340.573C346.964 334.041 339.847 320.241 343.12 305.505C346.035 292.314 358.069 282.269 372.39 282.028C386.711 281.787 398.946 291.379 402.347 304.386C406.163 318.98 399.617 333.063 385.496 340.148L401.747 408.044V408.058Z" fill="white"/>
</svg>
