<svg width="1101" height="648" viewBox="0 0 1101 648" fill="none" xmlns="http://www.w3.org/2000/svg">
<path d="M595.257 336.962C605.659 336.962 614.089 331.94 618.214 319.565L640.096 325.125C635.074 345.572 616.6 358.665 595.257 358.665C569.07 358.665 547.368 339.473 547.368 311.314C547.368 283.155 569.07 263.784 595.257 263.784C616.062 263.784 634.177 276.698 640.096 296.786L617.318 303.243C614.089 290.688 605.659 285.486 595.257 285.486C580.37 285.486 570.326 296.069 570.326 311.314C570.326 326.739 580.37 336.962 595.257 336.962Z" fill="black"/>
<path d="M739.129 266.474V355.974H715.454V348.979C707.921 355.078 698.056 358.665 685.859 358.665C663.081 358.665 641.916 339.473 641.916 311.314C641.916 283.155 663.081 263.784 685.859 263.784C698.056 263.784 707.921 267.371 715.454 273.649V266.474H739.129ZM689.985 338.039C702.719 338.039 715.454 327.815 715.454 311.314C715.454 294.813 702.719 284.41 689.985 284.41C675.636 284.41 664.874 294.813 664.874 311.314C664.874 327.815 675.636 338.039 689.985 338.039Z" fill="black"/>
<path d="M747.667 332.299L771.522 327.456C772.777 336.604 780.669 339.653 789.996 339.653C798.784 339.653 803.986 335.707 803.986 330.685C803.986 327.456 801.833 324.228 794.121 322.614L775.826 318.847C759.684 315.439 750.537 306.292 750.537 293.378C750.537 276.16 764.527 263.784 787.126 263.784C808.29 263.784 822.998 274.725 826.047 290.329L803.447 294.813C802.551 287.639 796.273 282.437 786.408 282.437C776.902 282.437 774.212 287.101 774.212 291.226C774.212 294.096 775.288 297.145 782.283 298.759L803.627 303.422C819.41 306.83 827.123 316.695 827.123 328.712C827.123 348.441 811.16 358.665 787.843 358.665C768.114 358.665 749.998 350.952 747.667 332.299Z" fill="black"/>
<path d="M888.272 263.784C909.795 263.784 924.143 279.209 924.143 301.449V355.974H900.468V306.471C900.468 293.916 893.294 285.486 882.353 285.486C868.901 285.486 860.112 294.454 860.112 316.336V355.974H836.437V226.836H860.112V274.545C867.107 267.55 876.434 263.784 888.272 263.784Z" fill="black"/>
<path d="M634.652 131.103V220.172H611.091V212.14C604.129 219.101 594.847 222.85 583.067 222.85C561.647 222.85 547.368 207.499 547.368 185.366V131.103H570.929V180.368C570.929 192.863 578.069 201.252 588.957 201.252C602.344 201.252 611.091 192.327 611.091 170.551V131.103H634.652Z" fill="black"/>
<path d="M702.339 128.426C723.759 128.426 738.038 143.776 738.038 165.91V220.172H714.477V170.908C714.477 158.413 707.337 150.024 696.449 150.024C683.062 150.024 674.316 158.948 674.316 180.725V220.172H650.754V131.103H674.316V139.135C681.277 132.174 690.559 128.426 702.339 128.426Z" fill="black"/>
<path d="M793.231 128.961C819.291 128.961 841.246 147.703 841.246 175.727C841.246 203.751 819.291 222.493 793.231 222.493C766.635 222.493 744.68 203.751 744.68 175.727C744.68 147.703 766.635 128.961 793.231 128.961ZM793.231 202.323C805.547 202.323 818.399 192.327 818.399 175.727C818.399 159.127 805.547 149.131 793.231 149.131C780.379 149.131 767.528 159.127 767.528 175.727C767.528 192.327 780.379 202.323 793.231 202.323Z" fill="black"/>
<path d="M254.495 380.754V406.364H225.202V380.845L254.495 380.754ZM176.905 377.53V406.364H206.198V377.53H176.905ZM165.379 428.432V438.058H175.143V428.432H165.379ZM212.39 489.959V496.406H219.01V489.959H212.39ZM229.489 428.432V458.945H260.449V428.432H229.489ZM184.097 454.496V474.566H204.436V454.496H184.097ZM233.442 510.483V528.01H251.256V510.483H233.442ZM256.352 478.788V509.711H287.741V478.788H256.352ZM272.499 529.145V542.222H285.645V529.145H272.499ZM300.315 515.023V544.084H329.846V515.023H300.315ZM332.418 542.313V561.475H351.851V542.313H332.418ZM532.227 127.609L531.179 409.679C530.941 460.807 502.458 506.169 457.685 531.551C433.632 545.31 407.912 550.395 380.572 551.304C377.19 551.531 373.809 551.531 370.474 551.531C367.331 551.531 364.187 551.44 361.187 551.304V514.161H330.37V491.003H301.649V478.788H287.788V428.432H267.45V380.663H276.071L306.412 380.573C308.174 392.787 306.65 404.094 307.698 416.49C310.699 452.634 344.802 476.155 381.906 472.25C415.628 468.708 439.729 444.869 439.586 411.813L439.252 226.415L376.095 226.098L375.761 128.063L532.322 127.609L532.227 127.609ZM321.368 460.035H303.125V477.426H321.368V460.035Z" fill="black"/>
<path d="M401.747 408.062L344.006 408.388L361.128 340.577C346.964 334.045 339.847 320.245 343.12 305.509C346.035 292.318 358.069 282.273 372.39 282.032C386.711 281.791 398.946 291.383 402.347 304.39C406.163 318.984 399.617 333.067 385.496 340.152L401.747 408.048V408.062Z" fill="black"/>
</svg>
